<?xml version="1.0" encoding="UTF-8" standalone="no"?>
<!-- Created with Inkscape (http://www.inkscape.org/) -->

<svg
   xmlns:dc="http://purl.org/dc/elements/1.1/"
   xmlns:cc="http://creativecommons.org/ns#"
   xmlns:rdf="http://www.w3.org/1999/02/22-rdf-syntax-ns#"
   xmlns:svg="http://www.w3.org/2000/svg"
   xmlns="http://www.w3.org/2000/svg"
   xmlns:sodipodi="http://sodipodi.sourceforge.net/DTD/sodipodi-0.dtd"
   xmlns:inkscape="http://www.inkscape.org/namespaces/inkscape"
   width="125.00001mm"
   height="125.00001mm"
   viewBox="0 0 125.00001 125.00001"
   version="1.1"
   id="svg7567"
   inkscape:version="0.92.2 (5c3e80d, 2017-08-06)"
   sodipodi:docname="Bohol Seal 1.svg">
  <defs
     id="defs7561" />
  <sodipodi:namedview
     id="base"
     pagecolor="#ffffff"
     bordercolor="#666666"
     borderopacity="1.0"
     inkscape:pageopacity="0.0"
     inkscape:pageshadow="2"
     inkscape:zoom="0.35"
     inkscape:cx="887.64905"
     inkscape:cy="10.506212"
     inkscape:document-units="mm"
     inkscape:current-layer="layer1"
     showgrid="false"
     fit-margin-top="0"
     fit-margin-left="0"
     fit-margin-right="0"
     fit-margin-bottom="0"
     inkscape:window-width="1920"
     inkscape:window-height="1017"
     inkscape:window-x="-8"
     inkscape:window-y="-8"
     inkscape:window-maximized="1" />
  <metadata
     id="metadata7564">
    <rdf:RDF>
      <cc:Work
         rdf:about="">
        <dc:format>image/svg+xml</dc:format>
        <dc:type
           rdf:resource="http://purl.org/dc/dcmitype/StillImage" />
        <dc:title></dc:title>
      </cc:Work>
    </rdf:RDF>
  </metadata>
  <g
     inkscape:label="Layer 1"
     inkscape:groupmode="layer"
     id="layer1"
     transform="translate(129.02382,-26.613094)">
    <g
       id="g7870">
      <circle
         style="fill:#ffffff;fill-opacity:1;stroke:#000000;stroke-width:1.14143348;stroke-miterlimit:4;stroke-dasharray:none;stroke-opacity:1"
         r="61.929287"
         cy="89.113098"
         cx="-66.523811"
         id="path3716" />
      <circle
         id="circle4523"
         cx="-66.523811"
         cy="89.113098"
         r="47.590977"
         style="fill:none;fill-opacity:1;stroke:#000000;stroke-width:1.14143348;stroke-miterlimit:4;stroke-dasharray:none;stroke-opacity:1" />
      <g
         transform="matrix(1.1414335,0,0,1.1414335,100.7673,10.619067)"
         id="g5465">
        <g
           id="g5116">
          <g
             transform="translate(98.15806)"
             id="g4810">
            <path
               style="fill:#1f5078;fill-opacity:1;stroke:none;stroke-width:0.26458332px;stroke-linecap:butt;stroke-linejoin:miter;stroke-opacity:1"
               d="M -215.42754,40.732141 V 92.87566 l -29.29315,12.77389 -29.29315,-12.77389 V 40.732141 Z"
               id="path4804"
               inkscape:connector-curvature="0"
               sodipodi:nodetypes="cccccc" />
            <path
               sodipodi:nodetypes="cccccc"
               inkscape:connector-curvature="0"
               id="path4806"
               d="m -215.42754,55.235 v 37.64066 l -29.29315,12.77389 -29.29315,-12.77389 V 55.235 Z"
               style="fill:#152e11;fill-opacity:1;stroke:none;stroke-width:0.26458332px;stroke-linecap:butt;stroke-linejoin:miter;stroke-opacity:1" />
            <path
               sodipodi:nodetypes="cccccc"
               inkscape:connector-curvature="0"
               id="path4808"
               d="M -215.42754,40.732141 V 92.87566 l -29.29315,12.77389 -29.29315,-12.77389 V 40.732141 Z"
               style="fill:none;fill-opacity:1;stroke:#000000;stroke-width:0.60000002;stroke-linecap:butt;stroke-linejoin:miter;stroke-miterlimit:4;stroke-dasharray:none;stroke-opacity:1" />
          </g>
          <g
             transform="matrix(1.2451619,0,0,1.2451619,158.14459,-13.541518)"
             id="g4828">
            <g
               transform="matrix(0.82231713,0,0,0.82231713,-124.20609,9.8143135)"
               id="g4818">
              <path
                 sodipodi:nodetypes="cczc"
                 inkscape:connector-curvature="0"
                 id="path4812"
                 d="m -182.02117,55.235 25.24087,-3.33e-4 c -4.02458,-1.582972 -10.29788,-7.665881 -13.05049,-7.68772 -2.75262,-0.02184 -8.11681,5.275269 -12.19038,7.688053 z"
                 style="fill:#1b3a16;fill-opacity:1;stroke:#152111;stroke-width:0.26458332px;stroke-linecap:butt;stroke-linejoin:miter;stroke-opacity:1" />
              <path
                 style="fill:#1b3a16;fill-opacity:1;stroke:#152111;stroke-width:0.28449526px;stroke-linecap:butt;stroke-linejoin:miter;stroke-opacity:1"
                 d="m -151.8923,55.2332 h 33.73462 c -3.94166,-2.049967 -15.08123,-9.407556 -17.29492,-9.030124 -2.21369,0.377432 -11.10767,5.979027 -16.4397,9.030124 z"
                 id="path4814"
                 inkscape:connector-curvature="0"
                 sodipodi:nodetypes="cczc" />
              <path
                 style="fill:#006600;fill-opacity:1;stroke:#152011;stroke-width:0.26458332px;stroke-linecap:butt;stroke-linejoin:miter;stroke-opacity:1"
                 d="m -167.81198,55.235 h 56.81927 c -1.89569,-0.105316 -7.1189,-8.205288 -10.2526,-8.180494 -3.1337,0.02479 -9.2036,6.068335 -14.68438,6.264245 -5.48078,0.19591 -11.91048,-7.434488 -15.67656,-6.932678 -3.76608,0.50181 -9.07903,7.187012 -16.20573,8.848927 z"
                 id="path4816"
                 inkscape:connector-curvature="0"
                 sodipodi:nodetypes="cczzzc" />
            </g>
            <path
               sodipodi:nodetypes="ccccccccczc"
               inkscape:connector-curvature="0"
               id="path4820"
               d="m -269.70102,52.779947 4.00922,-1.869991 -0.72228,1.558655 1.99704,-1.447195 1.29746,0.481672 -0.3582,-0.623967 2.32792,1.005185 -1.42951,-1.371116 3.15315,1.109715 c -2.04819,-1.029997 -2.64368,-2.230574 -4.43472,-2.244783 -1.79104,-0.01421 -3.18955,1.831903 -5.84008,3.401825 z"
               style="fill:#325e2b;fill-opacity:1;stroke:none;stroke-width:0.17215607px;stroke-linecap:butt;stroke-linejoin:miter;stroke-opacity:1" />
            <path
               sodipodi:nodetypes="ccccccccczc"
               inkscape:connector-curvature="0"
               id="path4822"
               d="m -254.50321,51.685446 4.21969,-1.811526 -1.37709,1.184478 2.65185,-1.073018 0.77127,0.633682 0.16799,-0.775977 2.32792,1.005185 -1.42951,-1.371116 2.88421,0.840775 c -2.04819,-1.029997 -2.37474,-1.961634 -4.16578,-1.975843 -1.79104,-0.01421 -3.40002,1.773438 -6.05055,3.34336 z"
               style="fill:#54874c;fill-opacity:1;stroke:none;stroke-width:0.17215607px;stroke-linecap:butt;stroke-linejoin:miter;stroke-opacity:1" />
            <path
               sodipodi:nodetypes="ccccccccczc"
               inkscape:connector-curvature="0"
               id="path4824"
               d="m -228.9754,51.760966 3.90549,-1.910745 -0.7487,1.03565 1.47776,-0.87458 0.45708,0.931338 0.30028,-0.974414 0.88925,0.641382 0.19106,-0.412001 1.80934,0.658874 c -2.04819,-1.592236 -2.37474,-2.027778 -3.4051,-2.025452 -1.03036,0.0023 -2.22593,1.360026 -4.87646,2.929948 z"
               style="fill:#54874c;fill-opacity:1;stroke:none;stroke-width:0.17215607px;stroke-linecap:butt;stroke-linejoin:miter;stroke-opacity:1" />
            <path
               sodipodi:nodetypes="ccccccccczc"
               inkscape:connector-curvature="0"
               id="path4826"
               d="m -240.44817,50.750003 3.49473,-1.437349 -0.73398,1.371567 1.82165,-1.470582 1.19222,1.08971 -0.0191,-0.963065 0.91306,0.631007 -0.64608,-0.961859 2.91929,1.144794 c -2.04819,-1.029997 -3.22833,-2.008406 -3.90853,-1.975843 -0.6802,0.03256 -2.38273,1.001697 -5.03326,2.57162 z"
               style="fill:#325e2b;fill-opacity:1;stroke:none;stroke-width:0.17215607px;stroke-linecap:butt;stroke-linejoin:miter;stroke-opacity:1" />
          </g>
        </g>
        <g
           id="g5401">
          <g
             transform="translate(0,-0.11575521)"
             id="g4590">
            <g
               id="g4580"
               style="stroke:#232323;stroke-opacity:1">
              <path
                 sodipodi:nodetypes="czccc"
                 inkscape:connector-curvature="0"
                 id="path4575"
                 d="m -156.7987,89.665886 c 0,0 -0.10524,1.669472 1.41011,1.681493 1.51535,0.01202 1.57064,-1.087646 2.15128,-2.483525 l -1.3447,-0.222168 c -0.724,0.263948 -1.29711,-0.256772 -2.21669,1.0242 z"
                 style="fill:#fbffff;fill-opacity:1;stroke:#232323;stroke-width:0.26458332px;stroke-linecap:butt;stroke-linejoin:miter;stroke-opacity:1" />
              <path
                 sodipodi:nodetypes="cccscsc"
                 inkscape:connector-curvature="0"
                 id="path4571"
                 d="m -156.7987,89.665886 c -0.40176,-0.987379 8.40873,-8.001967 9.92188,-7.342188 0.95469,-0.329497 11.60055,5.882991 11.36905,6.140214 -2.24582,1.858541 -3.95825,3.959881 -6.52401,5.414159 -0.60508,0.34296 -0.97191,1.512085 -1.80233,1.476356 -3.98334,-2.034891 -8.1482,-6.698485 -11.99272,-6.187885 -0.33929,0.04506 -0.59943,0.157582 -0.97187,0.499344 z"
                 style="fill:#fbffff;fill-opacity:1;stroke:#232323;stroke-width:0.26458332px;stroke-linecap:butt;stroke-linejoin:miter;stroke-opacity:1" />
              <path
                 sodipodi:nodetypes="czcczcc"
                 inkscape:connector-curvature="0"
                 id="path4573"
                 d="m -145.20987,93.294686 c 0,0 0.77386,-1.06264 1.75964,-0.127791 0.98578,0.934849 0.55022,2.07595 -0.38388,2.18753 1.46323,0.304345 5.28916,-4.614325 8.96657,-5.742215 0.28063,-0.09354 0.66949,-1.291058 0.61039,-1.618139 -0.0591,-0.32708 -0.62693,-1.193867 -1.05473,-1.071261 -1.46869,0.294272 -10.39281,4.71956 -9.89799,6.371876 z"
                 style="fill:#fbffff;fill-opacity:1;stroke:#232323;stroke-width:0.26458332px;stroke-linecap:butt;stroke-linejoin:miter;stroke-opacity:1" />
            </g>
            <g
               id="g4569">
              <path
                 sodipodi:nodetypes="ccccc"
                 inkscape:connector-curvature="0"
                 id="path4560"
                 d="m -141.53011,88.473891 c -0.36262,0.849104 -2.39565,1.561946 -4.37933,1.635739 -1.98368,-0.07379 -4.01671,-0.786635 -4.37933,-1.635739 -0.62254,-2.489069 0.001,-4.860507 4.37933,-4.907218 4.37802,0.04671 5.00187,2.418149 4.37933,4.907218 z"
                 style="fill:#723e0f;fill-opacity:1;stroke:#301a06;stroke-width:0.25;stroke-linecap:butt;stroke-linejoin:miter;stroke-miterlimit:4;stroke-dasharray:none;stroke-opacity:1" />
              <path
                 sodipodi:nodetypes="zzzzz"
                 inkscape:connector-curvature="0"
                 id="path4562"
                 d="m -143.54671,85.674459 c -0.2668,0.660536 -1.29212,0.754199 -2.36274,0.754198 -1.07062,-10e-7 -2.09593,-0.09366 -2.36273,-0.754198 -0.2668,-0.660537 5.4e-4,-1.825002 2.36273,-1.825003 2.36219,-10e-7 2.62954,1.164465 2.36274,1.825003 z"
                 style="fill:#ffffff;fill-opacity:1;stroke:#301a06;stroke-width:0.25;stroke-linecap:butt;stroke-linejoin:miter;stroke-miterlimit:4;stroke-dasharray:none;stroke-opacity:1" />
            </g>
          </g>
          <g
             id="g5101">
            <path
               style="fill:#960000;fill-opacity:1;stroke:none;stroke-width:0.26458332px;stroke-linecap:butt;stroke-linejoin:miter;stroke-opacity:1"
               d="m -146.56027,75.755955 c -0.40515,1.767388 0.40275,2.539393 0,5.413879 -0.26694,1.866399 -0.003,3.194108 0.72497,4.840918 v 0 0 c 0.15239,0.2216 0.27502,0.181563 0.38061,-0.04903 -0.001,-0.724857 -0.22577,-1.203559 0.0496,-2.232422 0.19881,-1.097473 0.031,-2.062353 -0.2067,-3.133659 0.25978,-1.134041 0.0614,-2.391739 0.01,-3.307895 -0.0383,-0.683718 0.65877,-1.936401 0.74835,-2.338607 0.0935,-0.350792 0.0468,-3.274052 0.0468,-3.274052 l -1.33269,-0.561269 c -0.0666,1.604691 -0.0158,2.87475 -0.42094,4.642137 z"
               id="path5059"
               inkscape:connector-curvature="0"
               sodipodi:nodetypes="zcccccccscccz" />
            <g
               id="g5057">
              <g
                 id="g4878"
                 transform="matrix(0.36144319,-0.32868587,0.32868587,0.36144319,-142.34633,-3.8574591)">
                <ellipse
                   style="fill:#76877d;fill-opacity:1;stroke:#000000;stroke-width:0.54245299;stroke-miterlimit:4;stroke-dasharray:none;stroke-opacity:1"
                   id="path4862"
                   cx="-85.929756"
                   cy="92.377045"
                   rx="2.1238084"
                   ry="3.0755272"
                   transform="matrix(0.99997676,0.00681709,0.00682594,0.9999767,0,0)" />
              </g>
              <g
                 id="g4984">
                <path
                   style="fill:#76877d;fill-opacity:1;stroke:#000000;stroke-width:0.28112221;stroke-linecap:butt;stroke-linejoin:miter;stroke-miterlimit:4;stroke-dasharray:none;stroke-opacity:1"
                   d="m -138.10421,63.635146 c 0.81679,-0.836631 1.69752,-1.910915 1.93225,-2.063281 0.50041,-0.324805 1.408,-0.493232 1.78482,0.07245 0.37683,0.565675 0.39987,1.273113 -0.0719,1.650724 -0.52697,-0.387841 -1.3478,-0.54252 -1.55712,0.654201 l 7.65093,9.648068 c 0,0 -8.27801,-8.199368 -8.52187,-8.270034 -0.53902,-0.749801 -1.40028,1.745799 -2.20213,0.664981 -0.80187,-1.080818 0.24602,-1.606754 0.98495,-2.357102 z"
                   id="path4870"
                   inkscape:connector-curvature="0"
                   sodipodi:nodetypes="cszcccczcc" />
                <g
                   id="g4944">
                  <ellipse
                     style="fill:#76877d;fill-opacity:1;stroke:#000000;stroke-width:0.54245299;stroke-miterlimit:4;stroke-dasharray:none;stroke-opacity:1"
                     id="ellipse4891"
                     cx="-85.929756"
                     cy="92.377045"
                     rx="2.1238084"
                     ry="3.0755272"
                     transform="matrix(-0.43571398,-0.22097262,-0.22689638,0.43265878,-169.81848,-0.99503399)" />
                  <path
                     sodipodi:nodetypes="cccccccccccccccccc"
                     inkscape:connector-curvature="0"
                     id="path4939"
                     d="m -154.25208,65.820313 c 0.4091,-0.115824 0.8076,-0.182227 1.12448,0.132292 4.14147,2.530951 7.67826,6.372048 11.5174,9.558072 2.24273,1.909318 2.76502,2.243528 6.24275,0.176714 3.07464,-2.000372 5.20798,-2.87236 7.72621,-4.316326 l -4.23288,-6.407788 -7.08599,3.531299 c -0.43296,0.177244 -0.94689,0.165577 -1.56687,-0.09354 l -8.79316,-4.934464 c -1.92942,-1.150351 -2.40429,-3.124485 -4.56029,-4.65383 -0.2436,-0.119659 -0.72385,-0.19199 -1.59025,-0.18709 0,0 -0.8419,-0.865285 -0.93545,-0.841899 -1.56481,0.120937 -1.82412,0.578919 -2.05797,2.245064 -0.69868,0.241852 -0.68884,0.690358 -0.65481,1.145918 -0.61262,1.048019 -0.34218,1.342833 0.0935,1.496709 -0.37718,0.303017 -0.2374,0.700403 -0.15201,1.157612 0.98886,1.272145 2.1449,1.941208 3.543,2.630935 0.78135,-0.07456 1.13258,-0.335167 1.38234,-0.639678 z"
                     style="fill:#870a05;fill-opacity:1;stroke:#000000;stroke-width:0.26458332px;stroke-linecap:butt;stroke-linejoin:miter;stroke-opacity:1" />
                </g>
                <g
                   id="g4782">
                  <path
                     sodipodi:nodetypes="cscccccc"
                     inkscape:connector-curvature="0"
                     id="path4743"
                     d="m -129.41432,73.460157 c 1.05006,-0.645391 2.19151,-1.241168 3.43307,-1.782603 2.75268,-1.200427 5.99743,-2.133731 9.82917,-2.748387 0.10708,-2.774194 0.98262,-5.257703 2.33683,-7.408333 -2.83873,-0.736723 -5.43134,-2.308908 -7.39699,-4.729427 l -9.78958,6.746875 c -1.54079,-0.21619 -2.35077,0.519999 -2.34818,2.315104 0.98349,2.347931 2.29738,4.884664 3.93568,7.606771 z"
                     style="fill:#df000e;fill-opacity:1;stroke:none;stroke-width:0.25;stroke-linecap:butt;stroke-linejoin:miter;stroke-miterlimit:4;stroke-dasharray:none;stroke-opacity:1" />
                  <path
                     style="fill:#f3e60f;fill-opacity:1;stroke:#000000;stroke-width:0.25;stroke-linecap:butt;stroke-linejoin:miter;stroke-miterlimit:4;stroke-dasharray:none;stroke-opacity:1"
                     d="m -125.98125,71.677554 c 2.75268,-1.200427 5.99743,-2.133731 9.82917,-2.748387 -6.35435,-7.751524 -13.6018,-1.262047 -9.82917,2.748387 z"
                     id="path4745"
                     inkscape:connector-curvature="0"
                     sodipodi:nodetypes="ccc" />
                  <path
                     style="fill:#f3e60f;fill-opacity:1;stroke:#000000;stroke-width:0.25;stroke-linecap:butt;stroke-linejoin:miter;stroke-miterlimit:4;stroke-dasharray:none;stroke-opacity:1"
                     d="m -121.21224,56.791407 -9.78958,6.746875 c 1.53698,2.22798 9.96609,5.626389 9.78958,-6.746875 z"
                     id="path4747"
                     inkscape:connector-curvature="0"
                     sodipodi:nodetypes="ccc" />
                  <path
                     sodipodi:nodetypes="szsszss"
                     inkscape:connector-curvature="0"
                     id="path4749"
                     d="m -129.10013,69.491407 c 0.62448,-0.122263 1.31952,-1.747393 0.96588,-2.280329 -0.35364,-0.532936 -1.77291,-0.740749 -2.30094,-0.385624 -0.3209,0.215821 -0.38557,0.446019 -0.21304,0.741221 0.26446,0.452475 0.64401,-0.0029 0.87011,0.469523 0.2261,0.472424 -0.24816,0.629304 -0.22865,0.9424 0.0205,0.329312 0.58651,0.575485 0.90664,0.512809 z"
                     style="fill:#f3e60f;fill-opacity:1;stroke:#000000;stroke-width:0.25;stroke-linecap:butt;stroke-linejoin:miter;stroke-miterlimit:4;stroke-dasharray:none;stroke-opacity:1" />
                  <path
                     sodipodi:nodetypes="ccccc"
                     inkscape:connector-curvature="0"
                     id="path4753"
                     d="m -119.87706,63.413949 c 0.81112,0.04455 1.50108,0.276361 2.06967,0.695738 0.01,-0.520898 0.77012,-1.289418 1.333,-1.467478 -0.27587,0.0077 -1.97905,-0.93542 -2.15152,-1.292082 -0.25167,0.878124 -0.56399,1.686509 -1.25115,2.063822 z"
                     style="fill:#f3e60f;fill-opacity:1;stroke:#000000;stroke-width:0.25;stroke-linecap:butt;stroke-linejoin:miter;stroke-miterlimit:4;stroke-dasharray:none;stroke-opacity:1" />
                  <path
                     sodipodi:nodetypes="czczczczc"
                     inkscape:connector-curvature="0"
                     id="path4755"
                     d="m -125.69362,63.935157 c 0,0 -0.98817,1.509562 -1.87689,0.669726 -0.88872,-0.839836 0.57051,-1.860351 0.57051,-1.860351 0,0 -0.43974,-0.674655 0.0661,-1.091406 0.50584,-0.416751 1.17409,0.06614 1.17409,0.06614 0,0 0.9611,-0.754217 1.50481,0.01654 0.54371,0.770756 -0.3638,1.4056 -0.3638,1.4056 0,0 0.59608,0.589739 0.0744,1.050065 -0.52164,0.460326 -1.14925,-0.256313 -1.14925,-0.256313 z"
                     style="fill:#df000e;fill-opacity:1;stroke:#000000;stroke-width:0.25;stroke-linecap:butt;stroke-linejoin:miter;stroke-miterlimit:4;stroke-dasharray:none;stroke-opacity:1" />
                  <path
                     sodipodi:nodetypes="cczczczczc"
                     inkscape:connector-curvature="0"
                     id="path4755-1"
                     d="m -124.22249,69.627271 c 0.58121,1.075804 1.53948,0.09578 1.53948,0.09578 0,0 0.83551,0.500152 1.19535,0.127679 0.35983,-0.372473 0.21518,-0.985837 0.21518,-0.985837 0,0 1.39068,-0.774487 0.76211,-1.490889 -0.62858,-0.716403 -1.80741,0.186047 -1.80741,0.186047 0,0 -0.61379,-0.786283 -1.19346,-0.40152 -0.57965,0.384725 -0.23178,1.126807 -0.23178,1.126807 0,0 -1.06067,0.266126 -0.47947,1.341929 z"
                     style="fill:#df000e;fill-opacity:1;stroke:#000000;stroke-width:0.25;stroke-linecap:butt;stroke-linejoin:miter;stroke-miterlimit:4;stroke-dasharray:none;stroke-opacity:1" />
                  <path
                     style="fill:none;fill-opacity:1;stroke:#000000;stroke-width:0.25;stroke-linecap:butt;stroke-linejoin:miter;stroke-miterlimit:4;stroke-dasharray:none;stroke-opacity:1"
                     d="m -129.41432,73.460157 c 1.05006,-0.645391 2.19151,-1.241168 3.43307,-1.782603 2.75268,-1.200427 5.99743,-2.133731 9.82917,-2.748387 0.10708,-2.774194 0.98262,-5.257703 2.33683,-7.408333 -2.83873,-0.736723 -5.43134,-2.308908 -7.39699,-4.729427 l -9.78958,6.746875 c -1.54079,-0.21619 -2.35077,0.519999 -2.34818,2.315104 0.98349,2.347931 2.29738,4.884664 3.93568,7.606771 z"
                     id="path4772"
                     inkscape:connector-curvature="0"
                     sodipodi:nodetypes="cscccccc" />
                </g>
              </g>
              <g
                 transform="matrix(-0.96592583,0.25881905,0.25881905,0.96592583,-305.92454,40.469284)"
                 id="g4897">
                <g
                   id="g4893"
                   transform="matrix(0.36144319,-0.32868587,0.32868587,0.36144319,-142.26669,-5.073097)" />
                <g
                   id="g5019">
                  <g
                     transform="matrix(-0.96592583,0.25881905,0.25881905,0.96592583,-305.97463,40.088772)"
                     id="g4914">
                    <path
                       sodipodi:nodetypes="cccccccccccc"
                       inkscape:connector-curvature="0"
                       id="path4845"
                       d="m -163.82597,73.662902 0.79513,-5.565889 2.57247,-1.461631 c 0,0 6.52471,3.098656 6.68842,3.098656 1.80835,0.884723 3.43469,-4.472444 8.76978,-7.810946 1.13534,-1.930353 2.45008,-4.861212 4.55444,-5.47819 0.64479,-0.07784 1.76585,1.123523 2.55493,1.876732 3.26839,0.206774 1.90251,3.080264 0.88867,3.818538 -0.64485,0.665673 -1.31301,1.415171 -2.11042,1.601358 -1.04442,0.395384 -1.52254,-0.111009 -2.23939,0.473399 -3.22885,4.826018 -6.08957,10.421194 -10.61729,14.031647 -1.44329,0.490239 -7.19698,-3.288441 -11.85674,-4.583674 z"
                       style="fill:#e96556;fill-opacity:1;stroke:#000000;stroke-width:0.26458332px;stroke-linecap:butt;stroke-linejoin:miter;stroke-opacity:1" />
                    <g
                       id="g4860">
                      <g
                         id="g4717">
                        <path
                           style="fill:#f8e00e;fill-opacity:1;stroke:#000000;stroke-width:0.26458332px;stroke-linecap:butt;stroke-linejoin:miter;stroke-opacity:1"
                           d="m -168.67586,59.866451 c -1.138,-0.905094 -2.2019,-1.81801 -3.03872,-2.810461 -2.35382,2.940948 -4.3587,4.108084 -6.18464,4.365625 1.48838,2.695728 1.41864,5.473462 0.39688,8.301302 1.02897,-0.15665 1.97875,-0.0173 3.03397,0.313423 l 2.68271,-3.87537 c 0.29762,-2.953841 1.64546,-4.691629 3.1098,-6.294519 z"
                           id="path4666"
                           inkscape:connector-curvature="0"
                           sodipodi:nodetypes="ccccccc" />
                        <g
                           id="g4704">
                          <g
                             id="g4682">
                            <path
                               style="fill:#1f5078;fill-opacity:1;stroke:#000000;stroke-width:0.26458332px;stroke-linecap:butt;stroke-linejoin:miter;stroke-opacity:1"
                               d="m -163.31406,64.398178 c -1.57696,-1.692051 -3.54856,-3.087427 -5.3618,-4.531727 -0.63821,0.579515 -1.1295,1.138865 -1.5131,1.683433 -0.69619,0.988332 -1.03763,1.927973 -1.25873,2.851097 -0.14145,0.590616 -0.23365,1.17447 -0.33797,1.759989 l -0.76061,1.098752 -1.9221,2.776618 c 1.63343,0.519647 3.57535,1.506864 6.40315,2.545419 0.34279,-0.579785 0.83879,-1.473711 1.39864,-2.480567 0.42374,-0.76207 0.88406,-1.588834 1.34223,-2.39305 0.4378,-0.768481 0.87364,-1.516373 1.2737,-2.167554 0.26441,-0.430372 0.51319,-0.818501 0.73659,-1.14241 z"
                               id="path4668"
                               inkscape:connector-curvature="0"
                               sodipodi:nodetypes="ccssccccsssc" />
                            <g
                               id="g4676">
                              <path
                                 style="fill:#f8e00e;fill-opacity:1;stroke:#000000;stroke-width:0.26458332px;stroke-linecap:butt;stroke-linejoin:miter;stroke-opacity:1"
                                 d="m -171.44769,64.400981 c -0.14145,0.590616 -0.23365,1.17447 -0.33797,1.759989 l -0.76061,1.098752 5.87969,2.84147 c 0.42374,-0.76207 0.88406,-1.588834 1.34223,-2.39305 z"
                                 id="path4670"
                                 inkscape:connector-curvature="0"
                                 sodipodi:nodetypes="cccccc" />
                              <path
                                 style="fill:#f8e00e;fill-opacity:1;stroke:#000000;stroke-width:0.26458332px;stroke-linecap:butt;stroke-linejoin:miter;stroke-opacity:1"
                                 d="m -163.31406,64.398178 c -1.57696,-1.692051 -3.54856,-3.087427 -5.3618,-4.531727 -0.63821,0.579515 -1.1295,1.138865 -1.5131,1.683433 l 6.13831,3.990704 c 0.26441,-0.430372 0.51319,-0.818501 0.73659,-1.14241 z"
                                 id="path4672"
                                 inkscape:connector-curvature="0"
                                 sodipodi:nodetypes="ccccc" />
                            </g>
                          </g>
                          <g
                             id="g4693">
                            <path
                               style="fill:#1f5078;fill-opacity:1;stroke:#000000;stroke-width:0.26458332px;stroke-linecap:butt;stroke-linejoin:miter;stroke-opacity:1"
                               d="m -163.11562,74.121615 c 0.38773,-2.520755 1.85449,-4.818265 3.50573,-7.077604 -1.86092,-1.556733 -2.01299,-2.64667 -3.74778,-2.661826 l -4.70755,8.199574 c 1.38508,0.507299 3.03773,1.04615 4.9496,1.539856 z"
                               id="path4684"
                               inkscape:connector-curvature="0"
                               sodipodi:nodetypes="ccccc" />
                            <path
                               sodipodi:nodetypes="ccc"
                               inkscape:connector-curvature="0"
                               id="path4686"
                               d="m -163.35767,64.382185 -4.70755,8.199574 c 2.70687,-0.382322 4.41144,-3.781946 4.70755,-8.199574 z"
                               style="fill:#fbffff;fill-opacity:1;stroke:#000000;stroke-width:0.26458332px;stroke-linecap:butt;stroke-linejoin:miter;stroke-opacity:1" />
                            <path
                               sodipodi:nodetypes="ccc"
                               inkscape:connector-curvature="0"
                               id="path4688"
                               d="m -163.11562,74.121615 c 0.38773,-2.520755 1.85449,-4.818265 3.50573,-7.077604 -3.40044,1.472673 -5.24921,2.232117 -3.50573,7.077604 z"
                               style="fill:#f8e00e;fill-opacity:1;stroke:#000000;stroke-width:0.26458332px;stroke-linecap:butt;stroke-linejoin:miter;stroke-opacity:1" />
                          </g>
                        </g>
                      </g>
                      <path
                         style="fill:none;stroke:#000000;stroke-width:0.30000001;stroke-linecap:butt;stroke-linejoin:miter;stroke-miterlimit:4;stroke-dasharray:none;stroke-opacity:1"
                         d="m -163.11562,74.121615 c 0.38773,-2.520755 1.85449,-4.818265 3.50573,-7.077604 -1.86092,-1.556733 -1.96938,-2.630677 -3.70417,-2.645833 -2.55548,-2.741979 -6.23696,-4.776258 -8.40052,-7.342188 -2.35382,2.940948 -4.3587,4.108084 -6.18464,4.365625 1.48838,2.695728 1.41864,5.473462 0.39688,8.301302 3.41619,-0.520078 5.95944,2.22251 14.38672,4.398698 z"
                         id="path4662"
                         inkscape:connector-curvature="0"
                         sodipodi:nodetypes="ccccccc" />
                    </g>
                  </g>
                  <path
                     style="fill:#76877d;fill-opacity:1;stroke:#000000;stroke-width:0.26499999;stroke-linecap:butt;stroke-linejoin:miter;stroke-miterlimit:4;stroke-dasharray:none;stroke-opacity:1"
                     d="m -137.9782,63.608096 c 0.77541,-0.78309 1.61152,-1.788625 1.83437,-1.93124 0.47506,-0.304019 1.33667,-0.461667 1.6944,0.06781 0.35774,0.529475 0.37962,1.19164 -0.0682,1.545085 -0.50027,-0.36302 -0.91841,-0.501842 -1.30384,0.368727 l 7.2735,9.482179 c 0,0 -8.04321,-7.882581 -8.27472,-7.948726 -0.51172,-0.701816 -1.32935,1.634077 -2.09059,0.622426 -0.76124,-1.011651 0.23356,-1.503929 0.93506,-2.206258 z"
                     id="path4895"
                     inkscape:connector-curvature="0"
                     sodipodi:nodetypes="cszcccczcc" />
                </g>
              </g>
            </g>
          </g>
        </g>
      </g>
      <g
         transform="matrix(1.1414335,0,0,1.1414335,100.7673,10.619067)"
         id="g5297">
        <g
           id="g5262">
          <g
             id="text5132"
             style="font-style:normal;font-variant:normal;font-weight:900;font-stretch:normal;font-size:10.58333302px;line-height:1.25;font-family:Arial;-inkscape-font-specification:'Arial Heavy';text-align:center;letter-spacing:0px;word-spacing:0px;text-anchor:middle;fill:#000000;fill-opacity:1;stroke:none;stroke-width:0.26458332"
             aria-label="PROVINCE OF BOHOL">
            <path
               inkscape:connector-curvature="0"
               id="path5164"
               style="font-size:10.93611145px;letter-spacing:0.26458332px;stroke-width:0.26458332"
               d="m -197.98117,65.867509 0.46877,-3.993525 q 0.15315,-1.304657 0.84961,-1.878846 0.69708,-0.579492 1.84263,-0.445024 1.17737,0.138203 1.75689,0.926687 0.58014,0.783181 0.40956,2.236336 l -0.15439,1.315265 2.8851,0.33866 -0.28326,2.413086 z m 3.59794,-2.024001 0.0691,-0.588687 q 0.0815,-0.694756 -0.12411,-1.003855 -0.21097,-0.309722 -0.58751,-0.353922 -0.36595,-0.04295 -0.64915,0.171124 -0.2832,0.214078 -0.36227,0.887621 l -0.0803,0.68415 z" />
            <path
               inkscape:connector-curvature="0"
               id="path5166"
               style="font-size:10.93611145px;letter-spacing:0.26458332px;stroke-width:0.26458332"
               d="m -189.08286,58.635255 -7.45573,-2.386246 1.22893,-3.839754 q 0.34183,-1.068011 0.70559,-1.573933 0.36377,-0.505922 0.97286,-0.692237 0.604,-0.187942 1.31601,0.03994 0.62046,0.198583 0.98845,0.60791 0.36291,0.4077 0.4945,0.96003 0.0836,0.351945 0.0362,0.903045 0.26916,-0.367999 0.4667,-0.512224 0.13224,-0.09784 0.5088,-0.24084 0.37819,-0.148081 0.56698,-0.177366 l 2.51792,-0.421999 -0.83339,2.603912 -2.67233,0.501534 q -0.51734,0.09233 -0.70817,0.2331 -0.25267,0.19386 -0.35359,0.509178 l -0.0651,0.20343 3.02603,0.968497 z m -3.69417,-3.733401 0.3109,-0.971381 q 0.0505,-0.157659 0.0936,-0.642847 0.0275,-0.243509 -0.11512,-0.446136 -0.14097,-0.207713 -0.38509,-0.285844 -0.36109,-0.115568 -0.6276,0.05144 -0.2665,0.167006 -0.46834,0.797641 l -0.32392,1.012068 z" />
            <path
               inkscape:connector-curvature="0"
               id="path5168"
               style="font-size:10.93611145px;letter-spacing:0.26458332px;stroke-width:0.26458332"
               d="m -189.86723,48.894089 q -1.6717,-0.938301 -2.08028,-2.392339 -0.40857,-1.454038 0.5245,-3.116422 0.9566,-1.704292 2.39144,-2.111396 1.43018,-0.409718 3.0786,0.515515 1.19673,0.671709 1.73767,1.50808 0.5389,0.829101 0.53866,1.833229 -0.002,0.996858 -0.64001,2.133053 -0.64819,1.154821 -1.44208,1.707358 -0.79128,0.54788 -1.85153,0.571256 -1.06024,0.02338 -2.25697,-0.648334 z m 1.19329,-2.104183 q 1.03376,0.580231 1.69976,0.451919 0.66862,-0.132968 1.03976,-0.794196 0.38159,-0.679855 0.14831,-1.300675 -0.23328,-0.620819 -1.37879,-1.263778 -0.9639,-0.541026 -1.62582,-0.398174 -0.66396,0.135581 -1.03771,0.801466 -0.35807,0.637946 -0.12332,1.277962 0.23475,0.640017 1.27781,1.225476 z" />
            <path
               inkscape:connector-curvature="0"
               id="path5170"
               style="font-size:10.93611145px;letter-spacing:0.26458332px;stroke-width:0.26458332"
               d="m -188.19068,38.315908 1.65734,-1.913053 5.41179,2.356918 -3.1216,-5.000483 1.60838,-1.85655 4.01466,7.321417 -1.71677,1.981665 z" />
            <path
               inkscape:connector-curvature="0"
               id="path5172"
               style="font-size:10.93611145px;letter-spacing:0.26458332px;stroke-width:0.26458332"
               d="m -180.8076,30.414408 1.84579,-1.571743 5.07527,5.960178 -1.84578,1.571743 z" />
            <path
               inkscape:connector-curvature="0"
               id="path5174"
               style="font-size:10.93611145px;letter-spacing:0.26458332px;stroke-width:0.26458332"
               d="m -176.43612,26.766473 1.93003,-1.173482 4.76848,2.169012 -2.24986,-3.700364 1.94828,-1.184578 4.06696,6.688944 -1.94828,1.184578 -4.73816,-2.149958 2.23323,3.672988 -1.94372,1.181804 z" />
            <path
               inkscape:connector-curvature="0"
               id="path5176"
               style="font-size:10.93611145px;letter-spacing:0.26458332px;stroke-width:0.26458332"
               d="m -160.37717,24.035081 2.21257,-0.09656 q 0.0934,0.912215 -0.14212,1.628527 -0.23553,0.716311 -0.77987,1.229653 -0.5393,0.511576 -1.53204,0.859564 -1.20438,0.422179 -2.09223,0.342968 -0.88458,-0.08602 -1.74803,-0.77358 -0.86345,-0.687564 -1.34568,-2.063284 -0.64299,-1.834293 -0.0149,-3.157872 0.63139,-1.330386 2.41529,-1.955704 1.39588,-0.489304 2.38993,-0.204003 0.99908,0.283535 1.79692,1.316629 l -1.8585,1.15507 q -0.22417,-0.300536 -0.39483,-0.416125 -0.28335,-0.194918 -0.60997,-0.238863 -0.32662,-0.04395 -0.66929,0.07617 -0.77605,0.272032 -0.97023,1.041749 -0.14992,0.573131 0.19807,1.565867 0.43101,1.229581 0.96466,1.557438 0.53188,0.322818 1.20714,0.08611 0.65511,-0.229637 0.85875,-0.714088 0.20868,-0.486218 0.11432,-1.239669 z" />
            <path
               inkscape:connector-curvature="0"
               id="path5178"
               style="font-size:10.93611145px;letter-spacing:0.26458332px;stroke-width:0.26458332"
               d="m -157.00036,18.329116 6.41757,-0.916201 0.23622,1.654612 -4.01759,0.573568 0.17585,1.231708 3.72684,-0.532061 0.22565,1.580603 -3.72684,0.532061 0.21811,1.52774 4.13388,-0.590172 0.25056,1.755051 -6.53386,0.932804 z" />
            <path
               inkscape:connector-curvature="0"
               id="path5180"
               style="font-size:10.93611145px;letter-spacing:0.26458332px;stroke-width:0.26458332"
               d="m -143.56584,21.204081 q 0.28136,-1.896265 1.49452,-2.795936 1.21315,-0.899671 3.09885,-0.619884 1.93324,0.28684 2.8247,1.482584 0.89224,1.190463 0.61481,3.060317 -0.20142,1.357492 -0.79027,2.160851 -0.58279,0.798861 -1.52115,1.156282 -0.9323,0.352923 -2.22112,0.161696 -1.30996,-0.194362 -2.10902,-0.739391 -0.79378,-0.544246 -1.19326,-1.526636 -0.39947,-0.98239 -0.19806,-2.339883 z m 2.39122,0.365588 q -0.17399,1.17262 0.18312,1.749246 0.36239,0.577409 1.11245,0.688697 0.77118,0.114423 1.2682,-0.324677 0.49702,-0.439099 0.68981,-1.738489 0.16223,-1.09339 -0.20701,-1.661019 -0.36318,-0.572127 -1.11851,-0.684199 -0.72365,-0.107369 -1.23808,0.339944 -0.51443,0.447312 -0.68998,1.630497 z" />
            <path
               inkscape:connector-curvature="0"
               id="path5182"
               style="font-size:10.93611145px;letter-spacing:0.26458332px;stroke-width:0.26458332"
               d="m -131.95215,19.391574 5.63253,2.010776 -0.56553,1.584149 -3.34431,-1.193899 -0.45961,1.287435 2.8565,1.019751 -0.53142,1.488597 -2.8565,-1.019751 -1.0754,3.012398 -2.28822,-0.816878 z" />
            <path
               inkscape:connector-curvature="0"
               id="path5184"
               style="font-size:10.93611145px;letter-spacing:0.26458332px;stroke-width:0.26458332"
               d="m -119.48317,24.934676 3.68292,2.634574 q 0.92073,0.658644 1.08529,1.465736 0.16889,0.810198 -0.31266,1.483374 -0.40389,0.564599 -1.04461,0.716853 -0.42715,0.101502 -0.99067,-0.06526 0.56814,0.655912 0.6006,1.289721 0.0399,0.632573 -0.39505,1.240603 -0.35418,0.49511 -0.86708,0.725668 -0.5129,0.230559 -1.07713,0.174915 -0.35008,-0.03377 -0.89613,-0.325904 -0.72663,-0.38848 -0.94378,-0.543821 l -3.39628,-2.429525 z m 0.19837,3.917077 0.85558,0.612041 q 0.46037,0.329322 0.75028,0.300351 0.29736,-0.03021 0.51173,-0.32988 0.19884,-0.277956 0.12827,-0.564793 -0.0662,-0.283729 -0.51356,-0.603731 l -0.86861,-0.621362 z m -1.78952,2.501607 1.00324,0.717673 q 0.50814,0.363497 0.84399,0.334558 0.33895,-0.03328 0.55643,-0.337297 0.20194,-0.282299 0.11464,-0.600806 -0.0798,-0.319743 -0.59668,-0.689453 l -0.9989,-0.714566 z" />
            <path
               inkscape:connector-curvature="0"
               id="path5186"
               style="font-size:10.93611145px;letter-spacing:0.26458332px;stroke-width:0.26458332"
               d="m -114.32173,33.673686 q 1.41229,-1.296308 2.92126,-1.231694 1.50896,0.06462 2.79805,1.469037 1.32158,1.439829 1.26155,2.930097 -0.0561,1.486657 -1.44872,2.76491 -1.01103,0.927998 -1.97428,1.18154 -0.9557,0.253865 -1.90981,-0.0591 -0.94657,-0.312644 -1.82762,-1.27253 -0.8955,-0.975621 -1.17329,-1.902116 -0.27418,-0.922561 0.0338,-1.937352 0.30801,-1.014791 1.31904,-1.942789 z m 1.62786,1.789304 q -0.87334,0.801617 -0.95884,1.474457 -0.0819,0.676775 0.43086,1.235397 0.52719,0.574357 1.18978,0.54604 0.6626,-0.02832 1.63035,-0.916596 0.81433,-0.747453 0.88474,-1.42094 0.078,-0.673163 -0.4384,-1.235719 -0.49469,-0.538952 -1.17599,-0.515214 -0.68129,0.02374 -1.5625,0.832575 z" />
            <path
               inkscape:connector-curvature="0"
               id="path5188"
               style="font-size:10.93611145px;letter-spacing:0.26458332px;stroke-width:0.26458332"
               d="m -104.01936,39.668273 1.21838,2.089736 -2.36653,1.379749 1.33134,2.283486 2.36652,-1.379748 1.22376,2.098962 -6.76281,3.942908 -1.22376,-2.098963 2.73557,-1.594914 -1.33133,-2.283487 -2.73558,1.594915 -1.21837,-2.089737 z" />
            <path
               inkscape:connector-curvature="0"
               id="path5190"
               style="font-size:10.93611145px;letter-spacing:0.26458332px;stroke-width:0.26458332"
               d="m -102.60065,50.337139 q 1.82481,-0.587406 3.168662,0.101955 1.343854,0.689361 1.927988,2.504005 0.59886,1.860392 -0.07852,3.189171 -0.672302,1.327142 -2.4717,1.906368 -1.30634,0.420511 -2.28739,0.248265 -0.97434,-0.1688 -1.71032,-0.851885 -0.72926,-0.679638 -1.1285,-1.919899 -0.40579,-1.260593 -0.27093,-2.21839 0.13649,-0.952714 0.84043,-1.745896 0.70394,-0.793182 2.01028,-1.213694 z m 0.73104,2.305889 q -1.12843,0.363243 -1.48731,0.938766 -0.35725,0.580606 -0.12491,1.302398 0.23889,0.742123 0.85268,0.993324 0.61379,0.251201 1.86421,-0.151312 1.052194,-0.338699 1.397639,-0.921116 0.352164,-0.57897 0.118183,-1.305845 -0.224163,-0.696376 -0.853022,-0.959553 -0.62886,-0.263178 -1.76747,0.103338 z" />
            <path
               inkscape:connector-curvature="0"
               id="path5192"
               style="font-size:10.93611145px;letter-spacing:0.26458332px;stroke-width:0.26458332"
               d="m -95.837349,59.936076 0.280059,2.402707 -5.86091,0.683147 0.43709,3.74992 -1.91474,0.223182 -0.71715,-6.152627 z" />
          </g>
          <g
             id="text5132-9"
             style="font-style:normal;font-variant:normal;font-weight:bold;font-stretch:normal;font-size:10.58333302px;line-height:1.25;font-family:Arial;-inkscape-font-specification:'Arial Bold';text-align:center;letter-spacing:0px;word-spacing:0px;text-anchor:middle;fill:#000000;fill-opacity:1;stroke:none;stroke-width:0.99999994"
             aria-label="OFFICIAL SEAL">
            <path
               inkscape:connector-curvature="0"
               id="path5200"
               style="font-style:normal;font-variant:normal;font-weight:bold;font-stretch:normal;font-size:10.93611145px;font-family:Arial;-inkscape-font-specification:'Arial Bold';letter-spacing:0.21166667px;stroke-width:0.99999994"
               d="m -181.59864,101.08939 q 0.81239,-0.87793 1.62625,-1.230673 0.60217,-0.257627 1.26201,-0.294545 0.66377,-0.03329 1.22341,0.171733 0.7473,0.269545 1.44886,0.918735 1.26986,1.17507 1.30123,2.66645 0.0353,1.495 -1.26309,2.89812 -1.2875,1.39136 -2.77291,1.47918 -1.48178,0.0839 -2.74772,-1.08754 -1.28162,-1.18595 -1.31633,-2.66586 -0.0311,-1.48383 1.23829,-2.8556 z m 1.23166,1.06697 q -0.90306,0.97591 -0.92019,1.89858 -0.0135,0.91875 0.68022,1.56069 0.69372,0.64194 1.5972,0.55401 0.91103,-0.0882 1.83585,-1.08766 0.91395,-0.98767 0.92862,-1.87623 0.0186,-0.88494 -0.69865,-1.54864 -0.71723,-0.6637 -1.61317,-0.57606 -0.89231,0.0837 -1.80988,1.07531 z" />
            <path
               inkscape:connector-curvature="0"
               id="path5202"
               style="font-style:normal;font-variant:normal;font-weight:bold;font-stretch:normal;font-size:10.93611145px;font-family:Arial;-inkscape-font-specification:'Arial Bold';letter-spacing:0.21166667px;stroke-width:0.99999994"
               d="m -177.44682,109.91746 4.39048,-6.48119 4.44311,3.00984 -0.74273,1.09641 -3.13449,-2.12336 -1.03922,1.53409 2.70565,1.83286 -0.74272,1.09641 -2.70566,-1.83287 -1.8658,2.75429 z" />
            <path
               inkscape:connector-curvature="0"
               id="path5204"
               style="font-style:normal;font-variant:normal;font-weight:bold;font-stretch:normal;font-size:10.93611145px;font-family:Arial;-inkscape-font-specification:'Arial Bold';letter-spacing:0.21166667px;stroke-width:0.99999994"
               d="m -171.66608,113.68581 3.4828,-7.01087 4.80622,2.38759 -0.58918,1.18602 -3.39065,-1.68439 -0.82438,1.65947 2.92678,1.45393 -0.58918,1.18602 -2.92677,-1.45394 -1.48008,2.97938 z" />
            <path
               inkscape:connector-curvature="0"
               id="path5206"
               style="font-style:normal;font-variant:normal;font-weight:bold;font-stretch:normal;font-size:10.93611145px;font-family:Arial;-inkscape-font-specification:'Arial Bold';letter-spacing:0.21166667px;stroke-width:0.99999994"
               d="m -165.46788,116.56951 2.77114,-7.3214 1.47826,0.55952 -2.77114,7.3214 z" />
            <path
               inkscape:connector-curvature="0"
               id="path5208"
               style="font-style:normal;font-variant:normal;font-weight:bold;font-stretch:normal;font-size:10.93611145px;font-family:Arial;-inkscape-font-specification:'Arial Bold';letter-spacing:0.21166667px;stroke-width:0.99999994"
               d="m -156.82735,116.22348 1.36429,0.85063 q -0.65909,1.15423 -1.61063,1.55568 -0.94504,0.39759 -2.16593,0.0852 -1.5106,-0.38648 -2.21979,-1.66479 -0.70786,-1.28348 -0.24992,-3.07343 0.48442,-1.89342 1.72953,-2.68827 1.24643,-0.80002 2.83979,-0.39237 1.39161,0.35604 2.05028,1.40094 0.39291,0.61864 0.41863,1.59532 l -1.60841,-0.0257 q 0.0164,-0.62417 -0.32565,-1.07546 -0.33686,-0.44996 -0.9473,-0.60614 -0.84325,-0.21574 -1.52577,0.25453 -0.67736,0.47159 -1.02413,1.82699 -0.36795,1.43817 -0.007,2.18097 0.36115,0.7428 1.18887,0.95457 0.61045,0.15618 1.14944,-0.11932 0.539,-0.27549 0.9435,-1.05942 z" />
            <path
               inkscape:connector-curvature="0"
               id="path5210"
               style="font-style:normal;font-variant:normal;font-weight:bold;font-stretch:normal;font-size:10.93611145px;font-family:Arial;-inkscape-font-specification:'Arial Bold';letter-spacing:0.21166667px;stroke-width:0.99999994"
               d="m -154.52791,119.54494 1.08778,-7.75235 1.56527,0.21963 -1.08777,7.75235 z" />
            <path
               inkscape:connector-curvature="0"
               id="path5212"
               style="font-style:normal;font-variant:normal;font-weight:bold;font-stretch:normal;font-size:10.93611145px;font-family:Arial;-inkscape-font-specification:'Arial Bold';letter-spacing:0.21166667px;stroke-width:0.99999994"
               d="m -144.20814,120.2459 -1.71869,-0.0511 -0.63039,-1.7977 -3.1278,-0.093 -0.69866,1.75821 -1.67598,-0.0498 3.28026,-7.73427 1.67065,0.0496 z m -2.81697,-3.18222 -0.99189,-2.93566 -1.14312,2.87222 z" />
            <path
               inkscape:connector-curvature="0"
               id="path5214"
               style="font-style:normal;font-variant:normal;font-weight:bold;font-stretch:normal;font-size:10.93611145px;font-family:Arial;-inkscape-font-specification:'Arial Bold';letter-spacing:0.21166667px;stroke-width:0.99999994"
               d="m -143.10528,120.09485 -0.87489,-7.71477 1.57054,-0.1781 0.72627,6.4042 3.90514,-0.44286 0.14862,1.31056 z" />
            <path
               inkscape:connector-curvature="0"
               id="path5216"
               style="font-style:normal;font-variant:normal;font-weight:bold;font-stretch:normal;font-size:10.93611145px;font-family:Arial;-inkscape-font-specification:'Arial Bold';letter-spacing:0.21166667px;stroke-width:0.99999994"
               d="m -134.49687,116.2174 1.41567,-0.61915 q 0.37215,0.69303 0.88583,0.90739 0.51875,0.2127 1.20408,-0.0109 0.72594,-0.23685 0.99208,-0.6607 0.26955,-0.43058 0.13539,-0.84178 -0.0861,-0.26398 -0.30313,-0.39539 -0.21358,-0.13814 -0.64411,-0.14933 -0.2938,-0.005 -1.30914,0.0677 -1.30594,0.0947 -1.93573,-0.1829 -0.88574,-0.39066 -1.17394,-1.27397 -0.1855,-0.56858 -0.0263,-1.16535 0.16258,-0.6035 0.68221,-1.0595 0.52472,-0.45766 1.38265,-0.73758 1.40112,-0.45713 2.30717,-0.0731 0.91113,0.38238 1.28124,1.39625 l -1.48112,0.55626 q -0.28362,-0.54218 -0.6846,-0.68659 -0.39756,-0.15113 -1.03213,0.0559 -0.65487,0.21367 -0.93767,0.60363 -0.18229,0.25045 -0.0879,0.53981 0.0861,0.26398 0.37078,0.37894 0.36213,0.14584 1.54314,0.047 1.181,-0.0989 1.79498,0.01 0.6174,0.10188 1.06918,0.48808 0.45521,0.37947 0.68544,1.08511 0.20869,0.63965 0.0355,1.31401 -0.17317,0.67435 -0.73353,1.16049 -0.56201,0.48107 -1.53163,0.79742 -1.41127,0.46045 -2.37968,0.0574 -0.97007,-0.40808 -1.52474,-1.60888 z" />
            <path
               inkscape:connector-curvature="0"
               id="path5218"
               style="font-style:normal;font-variant:normal;font-weight:bold;font-stretch:normal;font-size:10.93611145px;font-family:Arial;-inkscape-font-specification:'Arial Bold';letter-spacing:0.21166667px;stroke-width:0.99999994"
               d="m -126.21805,116.05491 -3.49325,-7.00566 5.19451,-2.59015 0.59094,1.18513 -3.78,1.88483 0.77443,1.5531 3.51717,-1.75378 0.58856,1.18036 -3.51717,1.75377 0.95076,1.90673 3.9138,-1.95155 0.58857,1.18035 z" />
            <path
               inkscape:connector-curvature="0"
               id="path5220"
               style="font-style:normal;font-variant:normal;font-weight:bold;font-stretch:normal;font-size:10.93611145px;font-family:Arial;-inkscape-font-specification:'Arial Bold';letter-spacing:0.21166667px;stroke-width:0.99999994"
               d="m -113.7704,108.52269 -1.40467,0.99166 -1.58392,-1.05846 -2.55633,1.80469 0.49769,1.8253 -1.36978,0.96702 -2.02391,-8.1537 1.36541,-0.96394 z m -4.16369,-0.85173 -2.55654,-1.75103 0.8116,2.9829 z" />
            <path
               inkscape:connector-curvature="0"
               id="path5222"
               style="font-style:normal;font-variant:normal;font-weight:bold;font-stretch:normal;font-size:10.93611145px;font-family:Arial;-inkscape-font-specification:'Arial Bold';letter-spacing:0.21166667px;stroke-width:0.99999994"
               d="m -112.97848,107.74044 -5.3496,-5.62715 1.14556,-1.08905 4.44082,4.67123 2.84841,-2.70791 0.90877,0.95592 z" />
          </g>
        </g>
        <g
           id="g5231"
           transform="translate(0.12818249)">
          <path
             transform="rotate(-11.247004,-192.00991,85.970959)"
             inkscape:transform-center-y="0.36506321"
             inkscape:transform-center-x="0.030808425"
             d="m -187.13542,89.284801 -2.9238,-0.644763 -1.53417,2.571124 -0.29029,-2.979942 -2.91937,-0.664552 2.74439,-1.196942 -0.27011,-2.98184 1.98642,2.240191 2.75243,-1.178327 -1.51671,2.581457 z"
             inkscape:randomized="0"
             inkscape:rounded="0"
             inkscape:flatsided="false"
             sodipodi:arg2="1.1629129"
             sodipodi:arg1="0.53459432"
             sodipodi:r2="1.5904622"
             sodipodi:r1="4.1310706"
             sodipodi:cy="87.180054"
             sodipodi:cx="-190.69011"
             sodipodi:sides="5"
             id="path5225"
             style="fill:#000000;fill-opacity:1;stroke:none;stroke-width:0.2;stroke-miterlimit:4;stroke-dasharray:none;stroke-opacity:1"
             sodipodi:type="star" />
          <path
             sodipodi:type="star"
             style="fill:#000000;fill-opacity:1;stroke:none;stroke-width:0.2;stroke-miterlimit:4;stroke-dasharray:none;stroke-opacity:1"
             id="path5227"
             sodipodi:sides="5"
             sodipodi:cx="-190.69011"
             sodipodi:cy="87.180054"
             sodipodi:r1="4.1310706"
             sodipodi:r2="1.5904622"
             sodipodi:arg1="0.53459432"
             sodipodi:arg2="1.1629129"
             inkscape:flatsided="false"
             inkscape:rounded="0"
             inkscape:randomized="0"
             d="m -187.13542,89.284801 -2.9238,-0.644763 -1.53417,2.571124 -0.29029,-2.979942 -2.91937,-0.664552 2.74439,-1.196942 -0.27011,-2.98184 1.98642,2.240191 2.75243,-1.178327 -1.51671,2.581457 z"
             inkscape:transform-center-x="-0.030810806"
             inkscape:transform-center-y="0.36506372"
             transform="matrix(-0.98079548,-0.19503904,-0.19503904,0.98079548,-272.92323,-35.798397)" />
        </g>
      </g>
    </g>
  </g>
</svg>
